<mxfile host="app.diagrams.net" modified="2024-01-16T12:36:42.007Z" agent="Mozilla/5.0 (Windows NT 10.0; Win64; x64) AppleWebKit/537.36 (KHTML, like Gecko) Chrome/120.0.0.0 Safari/537.36 Edg/120.0.0.0" etag="4Wpv7D-6Y_YhVGBk_0uI" version="22.1.18" type="github" pages="2">
  <diagram name="Konteks" id="c7558073-3199-34d8-9f00-42111426c3f3">
    <mxGraphModel dx="905" dy="528" grid="1" gridSize="10" guides="1" tooltips="1" connect="1" arrows="1" fold="1" page="1" pageScale="1" pageWidth="826" pageHeight="1169" background="none" math="0" shadow="0">
      <root>
        <mxCell id="0" />
        <mxCell id="1" parent="0" />
        <mxCell id="Fnzx3ZI2bNddJSy_vmFY-100" style="edgeStyle=orthogonalEdgeStyle;rounded=0;orthogonalLoop=1;jettySize=auto;html=1;entryX=0.25;entryY=0;entryDx=0;entryDy=0;" edge="1" parent="1" source="12" target="Fnzx3ZI2bNddJSy_vmFY-98">
          <mxGeometry relative="1" as="geometry" />
        </mxCell>
        <mxCell id="Fnzx3ZI2bNddJSy_vmFY-101" value="data pelanggan" style="edgeLabel;html=1;align=center;verticalAlign=middle;resizable=0;points=[];" vertex="1" connectable="0" parent="Fnzx3ZI2bNddJSy_vmFY-100">
          <mxGeometry x="0.0146" y="-2" relative="1" as="geometry">
            <mxPoint as="offset" />
          </mxGeometry>
        </mxCell>
        <mxCell id="Fnzx3ZI2bNddJSy_vmFY-102" style="edgeStyle=orthogonalEdgeStyle;rounded=0;orthogonalLoop=1;jettySize=auto;html=1;exitX=0.5;exitY=1;exitDx=0;exitDy=0;entryX=-0.007;entryY=0.166;entryDx=0;entryDy=0;entryPerimeter=0;" edge="1" parent="1" source="12" target="Fnzx3ZI2bNddJSy_vmFY-98">
          <mxGeometry relative="1" as="geometry">
            <mxPoint x="250" y="280" as="targetPoint" />
          </mxGeometry>
        </mxCell>
        <mxCell id="Fnzx3ZI2bNddJSy_vmFY-103" value="data pesanan" style="edgeLabel;html=1;align=center;verticalAlign=middle;resizable=0;points=[];" vertex="1" connectable="0" parent="Fnzx3ZI2bNddJSy_vmFY-102">
          <mxGeometry x="0.3845" y="-3" relative="1" as="geometry">
            <mxPoint as="offset" />
          </mxGeometry>
        </mxCell>
        <mxCell id="Fnzx3ZI2bNddJSy_vmFY-104" style="edgeStyle=orthogonalEdgeStyle;rounded=0;orthogonalLoop=1;jettySize=auto;html=1;exitX=1;exitY=0.25;exitDx=0;exitDy=0;entryX=0.5;entryY=0;entryDx=0;entryDy=0;" edge="1" parent="1" source="12" target="Fnzx3ZI2bNddJSy_vmFY-98">
          <mxGeometry relative="1" as="geometry" />
        </mxCell>
        <mxCell id="Fnzx3ZI2bNddJSy_vmFY-105" value="data retur" style="edgeLabel;html=1;align=center;verticalAlign=middle;resizable=0;points=[];" vertex="1" connectable="0" parent="Fnzx3ZI2bNddJSy_vmFY-104">
          <mxGeometry x="0.0032" y="2" relative="1" as="geometry">
            <mxPoint x="-31" as="offset" />
          </mxGeometry>
        </mxCell>
        <mxCell id="12" value="Pelanggan" style="whiteSpace=wrap;align=center;verticalAlign=middle;fontStyle=1;strokeWidth=3;fillColor=#FFFFCC" parent="1" vertex="1">
          <mxGeometry x="10" y="150.00000000000003" width="90" height="60" as="geometry" />
        </mxCell>
        <mxCell id="Fnzx3ZI2bNddJSy_vmFY-96" value="Pemilik" style="whiteSpace=wrap;align=center;verticalAlign=middle;fontStyle=1;strokeWidth=3;fillColor=#FFFFCC" vertex="1" parent="1">
          <mxGeometry x="500" y="275" width="90" height="60" as="geometry" />
        </mxCell>
        <mxCell id="Fnzx3ZI2bNddJSy_vmFY-112" style="edgeStyle=orthogonalEdgeStyle;rounded=0;orthogonalLoop=1;jettySize=auto;html=1;entryX=0.5;entryY=1;entryDx=0;entryDy=0;" edge="1" parent="1" source="Fnzx3ZI2bNddJSy_vmFY-97" target="Fnzx3ZI2bNddJSy_vmFY-98">
          <mxGeometry relative="1" as="geometry" />
        </mxCell>
        <mxCell id="Fnzx3ZI2bNddJSy_vmFY-113" value="data barang" style="edgeLabel;html=1;align=center;verticalAlign=middle;resizable=0;points=[];" vertex="1" connectable="0" parent="Fnzx3ZI2bNddJSy_vmFY-112">
          <mxGeometry x="0.2082" y="-2" relative="1" as="geometry">
            <mxPoint as="offset" />
          </mxGeometry>
        </mxCell>
        <mxCell id="Fnzx3ZI2bNddJSy_vmFY-97" value="Gudang" style="whiteSpace=wrap;align=center;verticalAlign=middle;fontStyle=1;strokeWidth=3;fillColor=#FFFFCC" vertex="1" parent="1">
          <mxGeometry x="20.000000000000057" y="350" width="90" height="60" as="geometry" />
        </mxCell>
        <mxCell id="Fnzx3ZI2bNddJSy_vmFY-106" style="edgeStyle=orthogonalEdgeStyle;rounded=0;orthogonalLoop=1;jettySize=auto;html=1;exitX=0.009;exitY=0.278;exitDx=0;exitDy=0;entryX=0.25;entryY=1;entryDx=0;entryDy=0;exitPerimeter=0;" edge="1" parent="1" source="Fnzx3ZI2bNddJSy_vmFY-98" target="12">
          <mxGeometry relative="1" as="geometry" />
        </mxCell>
        <mxCell id="Fnzx3ZI2bNddJSy_vmFY-107" value="faktur penjualan (1)" style="edgeLabel;html=1;align=center;verticalAlign=middle;resizable=0;points=[];" vertex="1" connectable="0" parent="Fnzx3ZI2bNddJSy_vmFY-106">
          <mxGeometry x="-0.4624" y="2" relative="1" as="geometry">
            <mxPoint x="-86" as="offset" />
          </mxGeometry>
        </mxCell>
        <mxCell id="Fnzx3ZI2bNddJSy_vmFY-114" style="edgeStyle=orthogonalEdgeStyle;rounded=0;orthogonalLoop=1;jettySize=auto;html=1;exitX=0.644;exitY=1.024;exitDx=0;exitDy=0;entryX=1;entryY=0.75;entryDx=0;entryDy=0;exitPerimeter=0;" edge="1" parent="1" source="Fnzx3ZI2bNddJSy_vmFY-98" target="Fnzx3ZI2bNddJSy_vmFY-97">
          <mxGeometry relative="1" as="geometry">
            <Array as="points">
              <mxPoint x="341" y="395" />
            </Array>
          </mxGeometry>
        </mxCell>
        <mxCell id="Fnzx3ZI2bNddJSy_vmFY-115" value="bukti retur (2)" style="edgeLabel;html=1;align=center;verticalAlign=middle;resizable=0;points=[];" vertex="1" connectable="0" parent="Fnzx3ZI2bNddJSy_vmFY-114">
          <mxGeometry x="0.0753" y="-1" relative="1" as="geometry">
            <mxPoint as="offset" />
          </mxGeometry>
        </mxCell>
        <mxCell id="Fnzx3ZI2bNddJSy_vmFY-116" style="edgeStyle=orthogonalEdgeStyle;rounded=0;orthogonalLoop=1;jettySize=auto;html=1;exitX=0;exitY=0.75;exitDx=0;exitDy=0;entryX=0.75;entryY=0;entryDx=0;entryDy=0;" edge="1" parent="1" source="Fnzx3ZI2bNddJSy_vmFY-98" target="Fnzx3ZI2bNddJSy_vmFY-97">
          <mxGeometry relative="1" as="geometry" />
        </mxCell>
        <mxCell id="Fnzx3ZI2bNddJSy_vmFY-117" value="faktur penjualan (2)" style="edgeLabel;html=1;align=center;verticalAlign=middle;resizable=0;points=[];" vertex="1" connectable="0" parent="Fnzx3ZI2bNddJSy_vmFY-116">
          <mxGeometry x="-0.0898" y="1" relative="1" as="geometry">
            <mxPoint as="offset" />
          </mxGeometry>
        </mxCell>
        <mxCell id="Fnzx3ZI2bNddJSy_vmFY-118" style="edgeStyle=orthogonalEdgeStyle;rounded=0;orthogonalLoop=1;jettySize=auto;html=1;exitX=0.75;exitY=0;exitDx=0;exitDy=0;entryX=0.5;entryY=0;entryDx=0;entryDy=0;" edge="1" parent="1" source="Fnzx3ZI2bNddJSy_vmFY-98" target="Fnzx3ZI2bNddJSy_vmFY-96">
          <mxGeometry relative="1" as="geometry" />
        </mxCell>
        <mxCell id="Fnzx3ZI2bNddJSy_vmFY-119" value="laporan pelanggan" style="edgeLabel;html=1;align=center;verticalAlign=middle;resizable=0;points=[];" vertex="1" connectable="0" parent="Fnzx3ZI2bNddJSy_vmFY-118">
          <mxGeometry x="0.1607" y="2" relative="1" as="geometry">
            <mxPoint x="-26" as="offset" />
          </mxGeometry>
        </mxCell>
        <mxCell id="Fnzx3ZI2bNddJSy_vmFY-120" style="edgeStyle=orthogonalEdgeStyle;rounded=0;orthogonalLoop=1;jettySize=auto;html=1;exitX=1;exitY=0.5;exitDx=0;exitDy=0;entryX=0;entryY=0.5;entryDx=0;entryDy=0;" edge="1" parent="1" source="Fnzx3ZI2bNddJSy_vmFY-98" target="Fnzx3ZI2bNddJSy_vmFY-96">
          <mxGeometry relative="1" as="geometry" />
        </mxCell>
        <mxCell id="Fnzx3ZI2bNddJSy_vmFY-121" value="laporan barang" style="edgeLabel;html=1;align=center;verticalAlign=middle;resizable=0;points=[];" vertex="1" connectable="0" parent="Fnzx3ZI2bNddJSy_vmFY-120">
          <mxGeometry x="0.0385" y="-2" relative="1" as="geometry">
            <mxPoint as="offset" />
          </mxGeometry>
        </mxCell>
        <mxCell id="Fnzx3ZI2bNddJSy_vmFY-124" style="edgeStyle=orthogonalEdgeStyle;rounded=0;orthogonalLoop=1;jettySize=auto;html=1;exitX=0.75;exitY=1;exitDx=0;exitDy=0;entryX=0.5;entryY=1;entryDx=0;entryDy=0;" edge="1" parent="1" source="Fnzx3ZI2bNddJSy_vmFY-98" target="Fnzx3ZI2bNddJSy_vmFY-96">
          <mxGeometry relative="1" as="geometry" />
        </mxCell>
        <mxCell id="Fnzx3ZI2bNddJSy_vmFY-125" value="laporan retur" style="edgeLabel;html=1;align=center;verticalAlign=middle;resizable=0;points=[];" vertex="1" connectable="0" parent="Fnzx3ZI2bNddJSy_vmFY-124">
          <mxGeometry x="0.1258" y="-1" relative="1" as="geometry">
            <mxPoint as="offset" />
          </mxGeometry>
        </mxCell>
        <mxCell id="Fnzx3ZI2bNddJSy_vmFY-98" value="&lt;p style=&quot;margin: 0px; margin-top: 4px; text-align: center; text-decoration: underline;&quot;&gt;&lt;strong&gt;0&lt;/strong&gt;&lt;/p&gt;&lt;hr&gt;&lt;p style=&quot;margin: 0px; margin-left: 8px;&quot;&gt;Sistem Informasi&amp;nbsp;&lt;/p&gt;&lt;p style=&quot;margin: 0px; margin-left: 8px;&quot;&gt;Penjualan&lt;/p&gt;" style="verticalAlign=middle;align=center;overflow=fill;fontSize=12;fontFamily=Helvetica;html=1;rounded=1;fontStyle=1;strokeWidth=3;fillColor=#E6FFCC" vertex="1" parent="1">
          <mxGeometry x="270" y="260" width="110" height="90" as="geometry" />
        </mxCell>
        <mxCell id="Fnzx3ZI2bNddJSy_vmFY-110" style="edgeStyle=orthogonalEdgeStyle;rounded=0;orthogonalLoop=1;jettySize=auto;html=1;exitX=0.002;exitY=0.439;exitDx=0;exitDy=0;entryX=0.097;entryY=1.025;entryDx=0;entryDy=0;entryPerimeter=0;exitPerimeter=0;" edge="1" parent="1" source="Fnzx3ZI2bNddJSy_vmFY-98" target="12">
          <mxGeometry relative="1" as="geometry" />
        </mxCell>
        <mxCell id="Fnzx3ZI2bNddJSy_vmFY-111" value="bukti retur (1)" style="edgeLabel;html=1;align=center;verticalAlign=middle;resizable=0;points=[];" vertex="1" connectable="0" parent="Fnzx3ZI2bNddJSy_vmFY-110">
          <mxGeometry x="0.0129" y="-1" relative="1" as="geometry">
            <mxPoint x="95" y="1" as="offset" />
          </mxGeometry>
        </mxCell>
        <mxCell id="Fnzx3ZI2bNddJSy_vmFY-122" style="edgeStyle=orthogonalEdgeStyle;rounded=0;orthogonalLoop=1;jettySize=auto;html=1;exitX=1;exitY=0.75;exitDx=0;exitDy=0;entryX=0.005;entryY=0.868;entryDx=0;entryDy=0;entryPerimeter=0;" edge="1" parent="1" source="Fnzx3ZI2bNddJSy_vmFY-98" target="Fnzx3ZI2bNddJSy_vmFY-96">
          <mxGeometry relative="1" as="geometry" />
        </mxCell>
        <mxCell id="Fnzx3ZI2bNddJSy_vmFY-123" value="laporan penjualan" style="edgeLabel;html=1;align=center;verticalAlign=middle;resizable=0;points=[];" vertex="1" connectable="0" parent="Fnzx3ZI2bNddJSy_vmFY-122">
          <mxGeometry x="0.0749" relative="1" as="geometry">
            <mxPoint x="-5" as="offset" />
          </mxGeometry>
        </mxCell>
        <mxCell id="Fnzx3ZI2bNddJSy_vmFY-126" style="edgeStyle=orthogonalEdgeStyle;rounded=0;orthogonalLoop=1;jettySize=auto;html=1;exitX=0.75;exitY=0;exitDx=0;exitDy=0;entryX=0.627;entryY=-0.008;entryDx=0;entryDy=0;entryPerimeter=0;" edge="1" parent="1" source="12" target="Fnzx3ZI2bNddJSy_vmFY-98">
          <mxGeometry relative="1" as="geometry" />
        </mxCell>
        <mxCell id="Fnzx3ZI2bNddJSy_vmFY-127" value="data penjualan" style="edgeLabel;html=1;align=center;verticalAlign=middle;resizable=0;points=[];" vertex="1" connectable="0" parent="Fnzx3ZI2bNddJSy_vmFY-126">
          <mxGeometry x="-0.21" y="1" relative="1" as="geometry">
            <mxPoint as="offset" />
          </mxGeometry>
        </mxCell>
      </root>
    </mxGraphModel>
  </diagram>
  <diagram name="Level 0" id="aVOfuQevAU05ASH97Mv9">
    <mxGraphModel dx="1048" dy="612" grid="1" gridSize="10" guides="1" tooltips="1" connect="1" arrows="1" fold="1" page="1" pageScale="1" pageWidth="826" pageHeight="1169" background="none" math="0" shadow="0">
      <root>
        <mxCell id="O7wXNATW90qLjHSOBKOd-0" />
        <mxCell id="O7wXNATW90qLjHSOBKOd-1" parent="O7wXNATW90qLjHSOBKOd-0" />
        <mxCell id="C4Mo3JOCC1lKTRdKsRty-0" value="&lt;p style=&quot;margin: 0px; margin-top: 4px; text-align: center; text-decoration: underline;&quot;&gt;&lt;strong&gt;1.0&lt;/strong&gt;&lt;/p&gt;&lt;hr&gt;&lt;p style=&quot;margin: 0px; margin-left: 8px;&quot;&gt;Mengelola&amp;nbsp;&lt;/p&gt;&lt;p style=&quot;margin: 0px; margin-left: 8px;&quot;&gt;Pendaftaran&amp;nbsp;&lt;/p&gt;" style="verticalAlign=middle;align=center;overflow=fill;fontSize=12;fontFamily=Helvetica;html=1;rounded=1;fontStyle=1;strokeWidth=3;fillColor=#E6FFCC" vertex="1" parent="O7wXNATW90qLjHSOBKOd-1">
          <mxGeometry x="358" y="80" width="110" height="90" as="geometry" />
        </mxCell>
        <mxCell id="C4Mo3JOCC1lKTRdKsRty-1" value="&lt;p style=&quot;margin: 0px; margin-top: 4px; text-align: center; text-decoration: underline;&quot;&gt;&lt;strong&gt;2.0&lt;/strong&gt;&lt;/p&gt;&lt;hr&gt;&lt;p style=&quot;margin: 0px; margin-left: 8px;&quot;&gt;Mengelola&amp;nbsp;&lt;/p&gt;&lt;p style=&quot;margin: 0px; margin-left: 8px;&quot;&gt;Pesanan&lt;/p&gt;&lt;p style=&quot;margin: 0px; margin-left: 8px;&quot;&gt;Penjualan&lt;/p&gt;" style="verticalAlign=middle;align=center;overflow=fill;fontSize=12;fontFamily=Helvetica;html=1;rounded=1;fontStyle=1;strokeWidth=3;fillColor=#E6FFCC" vertex="1" parent="O7wXNATW90qLjHSOBKOd-1">
          <mxGeometry x="600" y="80" width="110" height="90" as="geometry" />
        </mxCell>
        <mxCell id="C4Mo3JOCC1lKTRdKsRty-2" value="&lt;p style=&quot;margin: 0px; margin-top: 4px; text-align: center; text-decoration: underline;&quot;&gt;&lt;strong&gt;3.0&lt;/strong&gt;&lt;/p&gt;&lt;hr&gt;&lt;p style=&quot;margin: 0px; margin-left: 8px;&quot;&gt;Mengelola&amp;nbsp;&lt;/p&gt;&lt;p style=&quot;margin: 0px; margin-left: 8px;&quot;&gt;Penjualan&lt;/p&gt;" style="verticalAlign=middle;align=center;overflow=fill;fontSize=12;fontFamily=Helvetica;html=1;rounded=1;fontStyle=1;strokeWidth=3;fillColor=#E6FFCC" vertex="1" parent="O7wXNATW90qLjHSOBKOd-1">
          <mxGeometry x="358" y="240" width="110" height="90" as="geometry" />
        </mxCell>
        <mxCell id="C4Mo3JOCC1lKTRdKsRty-3" value="&lt;p style=&quot;margin: 0px; margin-top: 4px; text-align: center; text-decoration: underline;&quot;&gt;&lt;strong&gt;4.0&lt;/strong&gt;&lt;/p&gt;&lt;hr&gt;&lt;p style=&quot;margin: 0px; margin-left: 8px;&quot;&gt;Mengelola&amp;nbsp;&lt;/p&gt;&lt;p style=&quot;margin: 0px; margin-left: 8px;&quot;&gt;Retur&amp;nbsp;&lt;/p&gt;&lt;p style=&quot;margin: 0px; margin-left: 8px;&quot;&gt;Penjualan&amp;nbsp;&lt;/p&gt;" style="verticalAlign=middle;align=center;overflow=fill;fontSize=12;fontFamily=Helvetica;html=1;rounded=1;fontStyle=1;strokeWidth=3;fillColor=#E6FFCC" vertex="1" parent="O7wXNATW90qLjHSOBKOd-1">
          <mxGeometry x="600" y="240" width="110" height="90" as="geometry" />
        </mxCell>
        <mxCell id="C4Mo3JOCC1lKTRdKsRty-4" value="&lt;p style=&quot;margin: 0px; margin-top: 4px; text-align: center; text-decoration: underline;&quot;&gt;&lt;strong&gt;5.0&lt;/strong&gt;&lt;/p&gt;&lt;hr&gt;&lt;p style=&quot;margin: 0px; margin-left: 8px;&quot;&gt;Mengelola&amp;nbsp;&lt;/p&gt;&lt;p style=&quot;margin: 0px; margin-left: 8px;&quot;&gt;&lt;span style=&quot;background-color: initial;&quot;&gt;Pembuatan&amp;nbsp;&lt;/span&gt;&lt;/p&gt;&lt;p style=&quot;margin: 0px; margin-left: 8px;&quot;&gt;&lt;span style=&quot;background-color: initial;&quot;&gt;Laporan&amp;nbsp;&amp;nbsp;&lt;/span&gt;&lt;/p&gt;" style="verticalAlign=middle;align=center;overflow=fill;fontSize=12;fontFamily=Helvetica;html=1;rounded=1;fontStyle=1;strokeWidth=3;fillColor=#E6FFCC" vertex="1" parent="O7wXNATW90qLjHSOBKOd-1">
          <mxGeometry x="358" y="400" width="110" height="90" as="geometry" />
        </mxCell>
        <mxCell id="C4Mo3JOCC1lKTRdKsRty-5" value="Pelanggan" style="whiteSpace=wrap;align=center;verticalAlign=middle;fontStyle=1;strokeWidth=3;fillColor=#FFFFCC" vertex="1" parent="O7wXNATW90qLjHSOBKOd-1">
          <mxGeometry x="80.00000000000004" y="80" width="90" height="60" as="geometry" />
        </mxCell>
        <mxCell id="C4Mo3JOCC1lKTRdKsRty-6" value="&lt;p style=&quot;margin: 0px; margin-top: 4px; text-align: center; text-decoration: underline;&quot;&gt;&lt;strong&gt;6.0&lt;/strong&gt;&lt;/p&gt;&lt;hr&gt;&lt;p style=&quot;margin: 0px; margin-left: 8px;&quot;&gt;Mengelola&amp;nbsp;&lt;/p&gt;&lt;p style=&quot;margin: 0px; margin-left: 8px;&quot;&gt;&lt;span style=&quot;background-color: initial;&quot;&gt;Pendataan&amp;nbsp;&lt;/span&gt;&lt;/p&gt;&lt;p style=&quot;margin: 0px; margin-left: 8px;&quot;&gt;&lt;span style=&quot;background-color: initial;&quot;&gt;Barang&amp;nbsp;&amp;nbsp;&lt;/span&gt;&lt;/p&gt;" style="verticalAlign=middle;align=center;overflow=fill;fontSize=12;fontFamily=Helvetica;html=1;rounded=1;fontStyle=1;strokeWidth=3;fillColor=#E6FFCC" vertex="1" parent="O7wXNATW90qLjHSOBKOd-1">
          <mxGeometry x="600" y="400" width="110" height="90" as="geometry" />
        </mxCell>
        <mxCell id="C4Mo3JOCC1lKTRdKsRty-7" value="Gudang" style="whiteSpace=wrap;align=center;verticalAlign=middle;fontStyle=1;strokeWidth=3;fillColor=#FFFFCC" vertex="1" parent="O7wXNATW90qLjHSOBKOd-1">
          <mxGeometry x="80.00000000000004" y="520" width="90" height="60" as="geometry" />
        </mxCell>
        <mxCell id="C4Mo3JOCC1lKTRdKsRty-8" value="Pemilik" style="whiteSpace=wrap;align=center;verticalAlign=middle;fontStyle=1;strokeWidth=3;fillColor=#FFFFCC" vertex="1" parent="O7wXNATW90qLjHSOBKOd-1">
          <mxGeometry x="800" y="525" width="90" height="60" as="geometry" />
        </mxCell>
      </root>
    </mxGraphModel>
  </diagram>
</mxfile>
